:FULLY-SPECIFIED
:FORCE-ALL-JOINTS-BE-3DOF
:DEGREES
1325
root -1.6506 14.5906 7.92164 352.376 28.2104 363.776
lfemur 2.75845 3.63323 -17.034
ltibia 55.4047 0 0
lfoot -30.6079 28.365 0
ltoes -14.4764 0 0
rfemur -38.9683 -2.09274 -5.41894
rtibia 28.1381 0 0
rfoot 36.5133 2.65273 0
rtoes 16.7296 0 0
lowerback 11.4886 0.237872 -12.5027
upperback -1.67164 -1.48116 0.0451448
thorax -8.0124 -0.140115 7.37669
lowerneck -2.16704 -10.0501 -10.4238
upperneck 13.696 -13.9215 7.38097
head 5.75121 -6.92854 3.06762
lclavicle 5.00978e-14 6.32073e-15 0
lhumerus -67.9768 -21.8261 110.403
lradius 94.9746 0 0
lwrist 53.7869 0 0
lhand -11.119 22.2506 0
lfingers 7.12502 0 0
lthumb 14.9068 -308.281 0
rclavicle 5.00978e-14 6.32073e-15 0
rhumerus 63.9867 5.28781 -38.9716
rradius 81.1887 0 0
rwrist 29.8609 0 0
rhand -40.6253 -42.4436 0
rfingers 7.12502 0 0
rthumb -13.5718 -72.0795 0
1326
root -1.67439 14.5354 8.12006 352.428 28.1282 363.772
lfemur 2.67348 3.64967 -17.0595
ltibia 55.4391 0 0
lfoot -30.5626 28.4296 0
ltoes -14.3743 0 0
rfemur -39.171 -2.23901 -5.2037
rtibia 28.6233 0 0
rfoot 36.0169 2.68533 0
rtoes 16.4193 0 0
lowerback 11.5159 0.271842 -12.4847
upperback -1.67668 -1.43758 0.0392974
thorax -8.04289 -0.118254 7.35151
lowerneck -2.15499 -10.0515 -10.4306
upperneck 13.628 -13.9241 7.41719
head 5.73228 -6.92936 3.08193
lclavicle 4.88935e-14 6.15024e-15 0
lhumerus -67.3937 -21.9285 110.147
lradius 95.0509 0 0
lwrist 53.6953 0 0
lhand -11.2451 22.5353 0
lfingers 7.12502 0 0
lthumb 14.7852 -307.992 0
rclavicle 4.88935e-14 6.15024e-15 0
rhumerus 63.5591 5.24743 -39.1851
rradius 81.2169 0 0
rwrist 29.3165 0 0
rhand -40.4614 -42.4201 0
rfingers 7.12502 0 0
rthumb -13.4136 -72.0517 0
1327
root -1.69818 14.4802 8.31847 352.501 27.9927 363.762
lfemur 2.51113 3.68155 -17.1093
ltibia 55.5032 0 0
lfoot -30.4881 28.5058 0
ltoes -14.2237 0 0
rfemur -39.4756 -2.45171 -4.87176
rtibia 29.3615 0 0
rfoot 35.2706 2.71941 0
rtoes 15.9618 0 0
lowerback 11.5579 0.319998 -12.4543
upperback -1.68445 -1.37533 0.0324676
thorax -8.08866 -0.0870617 7.31468
lowerneck -2.14539 -10.0477 -10.4384
upperneck 13.535 -13.9195 7.46791
head 5.70674 -6.92622 3.10207
lclavicle 4.71192e-14 5.91423e-15 0
lhumerus -66.3907 -22.1263 109.74
lradius 95.1543 0 0
lwrist 53.5269 0 0
lhand -11.447 22.9744 0
lfingers 7.12502 0 0
lthumb 14.5904 -307.545 0
rclavicle 4.71192e-14 5.91423e-15 0
rhumerus 62.8407 5.23128 -39.5708
rradius 81.2626 0 0
rwrist 28.3955 0 0
rhand -40.1784 -42.409 0
rfingers 7.12502 0 0
rthumb -13.1404 -72.0342 0
1328
root -1.72197 14.425 8.51688 352.608 27.8195 363.753
lfemur 2.32829 3.71701 -17.1644
ltibia 55.577 0 0
lfoot -30.3925 28.6368 0
ltoes -14.0116 0 0
rfemur -39.8979 -2.75533 -4.42182
rtibia 30.3741 0 0
rfoot 34.2362 2.78487 0
rtoes 15.3166 0 0
lowerback 11.615 0.390302 -12.4162
upperback -1.69499 -1.28506 0.0206089
thorax -8.15218 -0.0417836 7.26238
lowerneck -2.1217 -10.0496 -10.4522
upperneck 13.3949 -13.9235 7.54278
head 5.66777 -6.9272 3.13166
lclavicle 4.46155e-14 5.56233e-15 0
lhumerus -65.1545 -22.347 109.203
lradius 95.3114 0 0
lwrist 53.3308 0 0
lhand -11.7117 23.5696 0
lfingers 7.12502 0 0
lthumb 14.335 -306.94 0
rclavicle 4.46155e-14 5.56233e-15 0
rhumerus 61.9371 5.15456 -40.0266
rradius 81.3219 0 0
rwrist 27.2439 0 0
rhand -39.8308 -42.3641 0
rfingers 7.12502 0 0
rthumb -12.805 -71.9803 0
1329
root -1.74577 14.3697 8.71529 352.759 27.6239 363.752
lfemur 2.18183 3.74425 -17.2056
ltibia 55.6403 0 0
lfoot -30.2841 28.8659 0
ltoes -13.7249 0 0
rfemur -40.4539 -3.17437 -3.85258
rtibia 31.6829 0 0
rfoot 32.8755 2.91164 0
rtoes 14.4431 0 0
lowerback 11.6881 0.490715 -12.375
upperback -1.70838 -1.15746 -0.000324875
thorax -8.2359 0.0223365 7.19079
lowerneck -2.06736 -10.0681 -10.4771
upperneck 13.1856 -13.9518 7.65144
head 5.60853 -6.94043 3.17428
lclavicle 4.1223e-14 5.04416e-15 0
lhumerus -63.872 -22.5184 108.562
lradius 95.549 0 0
lwrist 53.1564 0 0
lhand -12.026 24.3224 0
lfingers 7.12502 0 0
lthumb 14.0317 -306.174 0
rclavicle 4.1223e-14 5.04416e-15 0
rhumerus 60.954 4.93244 -40.4502
rradius 81.3912 0 0
rwrist 26.008 0 0
rhand -39.4736 -42.239 0
rfingers 7.12502 0 0
rthumb -12.46 -71.8435 0
1330
root -1.76956 14.3145 8.91371 352.965 27.4213 363.764
lfemur 2.12863 3.75142 -17.2138
ltibia 55.6729 0 0
lfoot -30.1711 29.2361 0
ltoes -13.3507 0 0
rfemur -41.1595 -3.73333 -3.16272
rtibia 33.3095 0 0
rfoot 31.1504 3.12965 0
rtoes 13.3006 0 0
lowerback 11.7779 0.629199 -12.3354
upperback -1.72468 -0.983209 -0.0343803
thorax -8.34228 0.110054 7.09608
lowerneck -1.96582 -10.1143 -10.5181
upperneck 12.8849 -14.02 7.80353
head 5.52221 -6.97401 3.23355
lclavicle 3.67822e-14 4.30935e-15 0
lhumerus -62.73 -22.5681 107.838
lradius 95.894 0 0
lwrist 53.0529 0 0
lhand -12.3769 25.2344 0
lfingers 7.12502 0 0
lthumb 13.6932 -305.247 0
rclavicle 3.67822e-14 4.30935e-15 0
rhumerus 59.9971 4.48012 -40.7397
rradius 81.4665 0 0
rwrist 24.8338 0 0
rhand -39.1613 -41.9872 0
rfingers 7.12502 0 0
rthumb -12.1585 -71.5772 0
1331
root -1.79335 14.2593 9.11212 353.238 27.2272 363.797
lfemur 2.22557 3.7267 -17.17
ltibia 55.6549 0 0
lfoot -30.0614 29.7905 0
ltoes -12.876 0 0
rfemur -42.0306 -4.45671 -2.35094
rtibia 35.2755 0 0
rfoot 29.0226 3.46884 0
rtoes 11.8486 0 0
lowerback 11.885 0.813716 -12.3021
upperback -1.74395 -0.752975 -0.0856038
thorax -8.47378 0.226126 6.97444
lowerneck -1.80053 -10.199 -10.5805
upperneck 12.4708 -14.144 8.00872
head 5.40196 -7.03604 3.31306
lclavicle 3.11336e-14 3.30752e-15 0
lhumerus -61.9154 -22.4238 107.057
lradius 96.373 0 0
lwrist 53.0695 0 0
lhand -12.7512 26.3075 0
lfingers 7.12502 0 0
lthumb 13.3321 -304.157 0
rclavicle 3.11336e-14 3.30752e-15 0
rhumerus 59.1721 3.71279 -40.7928
rradius 81.544 0 0
rwrist 23.8674 0 0
rhand -38.9487 -41.5627 0
rfingers 7.12502 0 0
rthumb -11.9531 -71.1348 0
1332
root -1.81714 14.2041 9.31053 353.588 27.057 363.856
lfemur 2.52953 3.65827 -17.0551
ltibia 55.566 0 0
lfoot -29.9634 30.5725 0
ltoes -12.2877 0 0
rfemur -43.0831 -5.36902 -1.41594
rtibia 37.6025 0 0
rfoot 26.4541 3.95911 0
rtoes 10.0465 0 0
lowerback 12.0102 1.05223 -12.2798
upperback -1.76627 -0.457435 -0.158042
thorax -8.63284 0.375307 6.82204
lowerneck -1.55495 -10.3332 -10.6692
upperneck 11.9211 -14.3395 8.27665
head 5.24096 -7.13464 3.41641
lclavicle 2.4118e-14 1.98829e-15 0
lhumerus -61.6149 -22.0131 106.24
lradius 97.0129 0 0
lwrist 53.2554 0 0
lhand -13.1358 27.543 0
lfingers 7.12502 0 0
lthumb 12.9612 -302.903 0
rclavicle 2.4118e-14 1.98829e-15 0
rhumerus 58.5847 2.54563 -40.5075
rradius 81.6201 0 0
rwrist 23.2551 0 0
rhand -38.8907 -40.9189 0
rfingers 7.12502 0 0
rthumb -11.8967 -70.4697 0
1333
root -1.84093 14.1489 9.50895 354.027 26.9261 363.949
lfemur 3.09738 3.53429 -16.85
ltibia 55.3862 0 0
lfoot -29.8853 31.6251 0
ltoes -11.5729 0 0
rfemur -44.3329 -6.49474 -0.356393
rtibia 40.3123 0 0
rfoot 23.4067 4.6304 0
rtoes 7.85358 0 0
lowerback 12.1542 1.35269 -12.273
upperback -1.79168 -0.0872646 -0.25574
thorax -8.82193 0.562354 6.63505
lowerneck -1.21251 -10.5278 -10.7894
upperneck 11.2138 -14.6221 8.61695
head 5.03238 -7.27791 3.5472
lclavicle 1.55757e-14 3.01297e-16 0
lhumerus -62.0154 -21.2637 105.412
lradius 97.8405 0 0
lwrist 53.66 0 0
lhand -13.5175 28.9428 0
lfingers 7.12502 0 0
lthumb 12.5931 -301.483 0
rclavicle 1.55757e-14 3.01297e-16 0
rhumerus 58.3406 0.893827 -39.7815
rradius 81.6908 0 0
rwrist 23.1428 0 0
rhand -39.0418 -40.0095 0
rfingers 7.12502 0 0
rthumb -12.0421 -69.5354 0
1334
root -1.86472 14.0937 9.70736 354.566 26.85 364.082
lfemur 3.986 3.34294 -16.5355
ltibia 55.0953 0 0
lfoot -29.835 32.9915 0
ltoes -10.7187 0 0
rfemur -45.7959 -7.85838 0.828992
rtibia 43.4263 0 0
rfoot 19.8422 5.51263 0
rtoes 5.22937 0 0
lowerback 12.3177 1.72307 -12.2864
upperback -1.82027 0.36686 -0.382746
thorax -9.04351 0.792022 6.40967
lowerneck -0.756663 -10.7938 -10.9461
upperneck 10.3266 -15.0076 9.0393
head 4.76938 -7.47396 3.70904
lclavicle 5.34731e-15 -1.80385e-15 0
lhumerus -63.3037 -20.1032 104.596
lradius 98.8824 0 0
lwrist 54.3324 0 0
lhand -13.8833 30.5084 0
lfingers 7.12502 0 0
lthumb 12.2405 -299.895 0
rclavicle 5.34731e-15 -1.80385e-15 0
rhumerus 58.5455 -1.32742 -38.5129
rradius 81.7524 0 0
rwrist 23.6768 0 0
rhand -39.4569 -38.7883 0
rfingers 7.12502 0 0
rthumb -12.4421 -68.2851 0
1335
root -1.88851 14.0384 9.90577 355.215 26.8442 364.262
lfemur 5.25228 3.07238 -16.0927
ltibia 54.6733 0 0
lfoot -29.8209 34.7148 0
ltoes -9.71198 0 0
rfemur -47.488 -9.48444 2.14153
rtibia 46.9664 0 0
rfoot 15.7223 6.63574 0
rtoes 2.13322 0 0
lowerback 12.5014 2.17134 -12.3247
upperback -1.85208 0.914265 -0.543106
thorax -9.30002 1.06907 6.14206
lowerneck -0.170867 -11.1422 -11.1445
upperneck 9.23764 -15.5118 9.55332
head 4.44515 -7.73089 3.90552
lclavicle -6.72654e-15 -4.37751e-15 0
lhumerus -65.6666 -18.4593 103.816
lradius 100.165 0 0
lwrist 55.3219 0 0
lhand -14.22 32.2414 0
lfingers 7.12502 0 0
lthumb 11.9161 -298.139 0
rclavicle -6.72654e-15 -4.37751e-15 0
rhumerus 59.3051 -4.20294 -36.5993
rradius 81.8011 0 0
rwrist 25.0031 0 0
rhand -40.1907 -37.2088 0
rfingers 7.12502 0 0
rthumb -13.1495 -66.6724 0
1336
root -1.9123 13.9832 10.1042 355.986 26.9239 364.495
lfemur 6.95308 2.7108 -15.5024
ltibia 54.0999 0 0
lfoot -29.8511 36.8382 0
ltoes -8.53978 0 0
rfemur -49.4251 -11.3974 3.58252
rtibia 50.954 0 0
rfoot 11.0091 8.02963 0
rtoes -1.47546 0 0
lowerback 12.7059 2.70544 -12.3926
upperback -1.88719 1.56427 -0.740866
thorax -9.59393 1.39824 5.8284
lowerneck 0.561434 -11.5838 -11.3895
upperneck 7.92463 -16.1504 10.1687
head 4.05284 -8.05682 4.14024
lclavicle -2.08053e-14 -7.47007e-15 0
lhumerus -69.291 -16.2597 103.094
lradius 101.716 0 0
lwrist 56.6777 0 0
lhand -14.5145 34.1436 0
lfingers 7.12502 0 0
lthumb 11.6325 -296.212 0
rclavicle -2.08053e-14 -7.47007e-15 0
rhumerus 60.725 -7.81752 -33.9388
rradius 81.8331 0 0
rwrist 27.268 0 0
rhand -41.2979 -35.2249 0
rfingers 7.12502 0 0
rthumb -14.2171 -64.6507 0
1337
root -1.93609 13.928 10.3026 356.89 27.1048 364.787
lfemur 9.14529 2.24636 -14.7455
ltibia 53.3552 0 0
lfoot -29.9337 39.4049 0
ltoes -7.18913 0 0
rfemur -51.6231 -13.6218 5.15327
rtibia 55.4108 0 0
rfoot 5.66421 9.72425 0
rtoes -5.63727 0 0
lowerback 12.9321 3.33334 -12.4947
upperback -1.92566 2.32621 -0.980072
thorax -9.92769 1.78431 5.46488
lowerneck 1.45679 -12.1296 -11.6863
upperneck 6.36553 -16.939 10.895
head 3.58563 -8.45985 4.41681
lclavicle -3.70485e-14 -1.11319e-14 0
lhumerus -74.3636 -13.432 102.455
lradius 103.562 0 0
lwrist 58.4491 0 0
lhand -14.7536 36.2164 0
lfingers 7.12502 0 0
lthumb 11.4024 -294.114 0
rclavicle -3.70485e-14 -1.11319e-14 0
rhumerus 62.911 -12.256 -30.4292
rradius 81.8445 0 0
rwrist 30.6174 0 0
rhand -42.8333 -32.79 0
rfingers 7.12502 0 0
rthumb -15.6978 -62.1733 0
